HIERARCHY
ROOT Hips
{
	OFFSET 0.000000 0.000000 0.000000
	CHANNELS 6 Xposition Yposition Zposition Xrotation Yrotation Zrotation
	JOINT Chest
	{
		OFFSET 0.000000 0.009282 11.569106
		CHANNELS 6 Xposition Yposition Zposition Xrotation Yrotation Zrotation
		JOINT Chest2
		{
			OFFSET 0.000000 -0.016863 9.269641
			CHANNELS 6 Xposition Yposition Zposition Xrotation Yrotation Zrotation
			JOINT Chest3
			{
				OFFSET 0.000000 0.000000 8.374491
				CHANNELS 6 Xposition Yposition Zposition Xrotation Yrotation Zrotation
				JOINT Chest4
				{
					OFFSET 0.000000 0.000000 8.374493
					CHANNELS 6 Xposition Yposition Zposition Xrotation Yrotation Zrotation
					JOINT Neck
					{
						OFFSET 0.000000 -0.000001 12.152554
						CHANNELS 6 Xposition Yposition Zposition Xrotation Yrotation Zrotation
						JOINT Head
						{
							OFFSET 0.000000 -0.040100 7.802319
							CHANNELS 6 Xposition Yposition Zposition Xrotation Yrotation Zrotation
							End Site
							{
								OFFSET 0.000000 -0.020946 14.853096
							}
						}
					}
					JOINT RightCollar
					{
						OFFSET -2.894404 0.000000 6.791374
						CHANNELS 6 Xposition Yposition Zposition Xrotation Yrotation Zrotation
						JOINT RightShoulder
						{
							OFFSET -13.574684 0.000000 0.000000
							CHANNELS 6 Xposition Yposition Zposition Xrotation Yrotation Zrotation
							JOINT RightElbow
							{
								OFFSET -23.923903 0.000000 0.000000
								CHANNELS 6 Xposition Yposition Zposition Xrotation Yrotation Zrotation
								JOINT RightWrist
								{
									OFFSET -19.846718 -0.012765 0.000000
									CHANNELS 6 Xposition Yposition Zposition Xrotation Yrotation Zrotation
									End Site
									{
										OFFSET -14.973145 0.000000 0.000000
									}
								}
							}
						}
					}
					JOINT LeftCollar
					{
						OFFSET 2.894404 0.000000 6.791374
						CHANNELS 6 Xposition Yposition Zposition Xrotation Yrotation Zrotation
						JOINT LeftShoulder
						{
							OFFSET 13.574684 0.000000 0.000000
							CHANNELS 6 Xposition Yposition Zposition Xrotation Yrotation Zrotation
							JOINT LeftElbow
							{
								OFFSET 23.923903 0.000000 0.000000
								CHANNELS 6 Xposition Yposition Zposition Xrotation Yrotation Zrotation
								JOINT LeftWrist
								{
									OFFSET 19.846718 -0.012765 0.000000
									CHANNELS 6 Xposition Yposition Zposition Xrotation Yrotation Zrotation
									End Site
									{
										OFFSET 14.973145 0.000000 0.000000
									}
								}
							}
						}
					}
				}
			}
		}
	}
	JOINT RightHip
	{
		OFFSET -9.469263 -0.004642 0.045487
		CHANNELS 6 Xposition Yposition Zposition Xrotation Yrotation Zrotation
		JOINT RightKnee
		{
			OFFSET 0.000000 -0.002666 -40.478676
			CHANNELS 6 Xposition Yposition Zposition Xrotation Yrotation Zrotation
			JOINT RightAnkle
			{
				OFFSET 0.000000 -0.049110 -35.224068
				CHANNELS 6 Xposition Yposition Zposition Xrotation Yrotation Zrotation
				JOINT RightToe
				{
					OFFSET 0.000000 -12.539530 -6.151390
					CHANNELS 6 Xposition Yposition Zposition Xrotation Yrotation Zrotation
					End Site
					{
						OFFSET 0.000000 -5.044995 -1.291870
					}
				}
			}
		}
	}
	JOINT LeftHip
	{
		OFFSET 9.469263 -0.004642 0.045487
		CHANNELS 6 Xposition Yposition Zposition Xrotation Yrotation Zrotation
		JOINT LeftKnee
		{
			OFFSET 0.000000 -0.002666 -40.478676
			CHANNELS 6 Xposition Yposition Zposition Xrotation Yrotation Zrotation
			JOINT LeftAnkle
			{
				OFFSET 0.000000 -0.049110 -35.224068
				CHANNELS 6 Xposition Yposition Zposition Xrotation Yrotation Zrotation
				JOINT LeftToe
				{
					OFFSET 0.000000 -12.539530 -6.151390
					CHANNELS 6 Xposition Yposition Zposition Xrotation Yrotation Zrotation
					End Site
					{
						OFFSET 0.000000 -5.044995 -1.291870
					}
				}
			}
		}
	}
}
MOTION
Frames: 5
Frame Time: 0.016667
-8.202665 2.397095 81.479958 9.141201 1.232803 -136.883152 -0.000001 0.009283 11.569107 6.201265 1.323562 2.550683 0.000000 -0.016863 9.269637 2.773643 0.545095 1.156550 0.000001 -0.000001 8.374481 2.773640 0.545094 1.156542 0.000000 0.000001 8.374483 2.081256 0.403582 0.869897 0.000001 0.000000 12.152541 26.230600 1.777603 3.595824 -0.000002 -0.040102 7.802320 12.506234 2.467469 6.984463 -2.894403 0.000001 6.791365 -9.102879 -10.345671 -1.423608 -13.574683 -0.000000 0.000004 9.113252 -39.156242 -13.121263 -23.923903 -0.000001 -0.000004 70.248058 17.349223 68.503013 -19.846718 -0.012769 0.000008 -54.395394 37.765970 81.343885 2.894404 0.000001 6.791377 -7.955109 6.117922 1.359909 13.574681 -0.000002 0.000007 2.248104 37.627157 9.879653 23.923901 -0.000002 -0.000003 73.563665 7.563023 -69.027654 19.846714 -0.012768 0.000003 -17.481060 -28.587733 -79.154338 -9.469265 -0.004641 0.045485 9.264364 -13.989311 0.291652 -0.000295 -0.002687 -40.478531 3.558025 -2.937811 6.370029 -0.000522 -0.049167 -35.224072 -1.169319 4.542471 11.295881 0.000002 -12.539531 -6.151390 -0.202440 -0.468498 -0.024842 9.469261 -0.004641 0.045484 -9.943408 11.895558 -8.994547 -0.000899 -0.002828 -40.478867 -3.773056 -1.859292 19.593499 0.000152 -0.049246 -35.223274 17.488771 -1.856559 -3.266422 0.000012 -12.539531 -6.151475 -1.967554 -0.048016 -0.283714 
-8.283499 2.478977 81.469582 9.096935 1.059737 -137.388599 0.000000 0.009282 11.569104 6.030799 1.297898 2.515385 -0.000002 -0.016864 9.269641 2.697975 0.534874 1.140763 -0.000001 -0.000000 8.374500 2.697973 0.534873 1.140757 0.000001 -0.000000 8.374487 2.024473 0.396130 0.857944 0.000001 -0.000005 12.152538 26.245564 1.928381 3.654808 0.000002 -0.040104 7.802310 12.526752 2.731503 7.125728 -2.894404 0.000000 6.791361 -9.036993 -10.337260 -1.421911 -13.574685 0.000000 -0.000001 9.021910 -39.237060 -13.293245 -23.923887 -0.000008 -0.000010 70.287114 17.289818 68.451746 -19.846720 -0.012763 0.000006 -54.375245 37.697081 81.324453 2.894405 -0.000001 6.791368 -7.890871 6.137802 1.356195 13.574682 0.000000 -0.000000 2.259246 37.632785 9.941990 23.923901 -0.000003 -0.000010 73.556425 7.548115 -68.986003 19.846727 -0.012760 0.000003 -17.471527 -28.560567 -79.148929 -9.469262 -0.004642 0.045484 9.312843 -14.032161 0.575062 -0.000305 -0.002688 -40.478527 3.483362 -2.873690 6.547231 -0.000524 -0.049165 -35.224079 -1.189529 4.594244 11.385085 0.000003 -12.539534 -6.151381 -0.151704 -0.431538 -0.026799 9.469262 -0.004642 0.045491 -9.864045 11.819204 -8.800568 -0.000910 -0.002831 -40.478870 -3.763861 -1.828164 19.880821 0.000154 -0.049247 -35.223251 17.637027 -2.043014 -3.292103 0.000013 -12.539536 -6.151470 -1.973660 -0.000110 -0.279010 
-8.370858 2.565032 81.457970 9.057829 0.892250 -137.862068 0.000002 0.009280 11.569100 5.862402 1.263290 2.481762 -0.000000 -0.016862 9.269636 2.621597 0.519753 1.125180 0.000001 0.000000 8.374496 2.621599 0.519754 1.125187 -0.000000 -0.000001 8.374491 1.967151 0.384997 0.846130 -0.000000 -0.000004 12.152547 26.258357 2.075525 3.708249 0.000000 -0.040099 7.802321 12.543092 2.990006 7.256113 -2.894403 -0.000000 6.791374 -8.965232 -10.334145 -1.410410 -13.574685 -0.000001 0.000011 8.931797 -39.300540 -13.468541 -23.923903 -0.000001 -0.000001 70.313601 17.237313 68.406530 -19.846712 -0.012768 0.000008 -54.383349 37.624917 81.330976 2.894405 -0.000001 6.791371 -7.811774 6.153656 1.350571 13.574679 -0.000001 -0.000008 2.242477 37.667172 10.036606 23.923901 -0.000004 -0.000005 73.546671 7.518365 -68.930406 19.846716 -0.012763 0.000001 -17.420744 -28.530197 -79.087525 -9.469262 -0.004645 0.045479 9.381523 -14.075105 0.818559 -0.000310 -0.002688 -40.478531 3.390511 -2.808322 6.701849 -0.000528 -0.049165 -35.224087 -1.222283 4.605357 11.448164 0.000002 -12.539535 -6.151392 -0.101608 -0.377703 -0.026942 9.469265 -0.004644 0.045482 -9.770921 11.746074 -8.581172 -0.000919 -0.002833 -40.478863 -3.767372 -1.804247 20.101489 0.000153 -0.049250 -35.223251 17.773662 -2.222313 -3.265942 0.000010 -12.539533 -6.151484 -1.961445 0.045057 -0.277158 
-8.459683 2.655541 81.445221 9.021660 0.717640 -138.308913 -0.000001 0.009282 11.569100 5.690471 1.219517 2.460939 0.000000 -0.016862 9.269637 2.544966 0.501817 1.114027 -0.000002 0.000001 8.374489 2.544966 0.501816 1.114028 -0.000002 -0.000001 8.374483 1.909634 0.371730 0.837616 0.000001 -0.000004 12.152542 26.259699 2.209256 3.761353 -0.000003 -0.040086 7.802314 12.538648 3.223392 7.383239 -2.894403 0.000000 6.791366 -8.879101 -10.334043 -1.416772 -13.574680 0.000000 -0.000007 8.833125 -39.345342 -13.614359 -23.923897 -0.000007 -0.000000 70.352014 17.201405 68.361724 -19.846720 -0.012763 -0.000001 -54.402645 37.571091 81.336379 2.894405 0.000000 6.791368 -7.708969 6.158892 1.309993 13.574682 0.000001 -0.000003 2.136504 37.719361 10.189248 23.923910 -0.000005 -0.000005 73.554615 7.521502 -68.857534 19.846725 -0.012773 0.000003 -17.314777 -28.489006 -78.973304 -9.469265 -0.004642 0.045484 9.447192 -14.118998 1.050032 -0.000315 -0.002688 -40.478539 3.295502 -2.753834 6.813722 -0.000536 -0.049168 -35.224079 -1.251731 4.588864 11.600251 -0.000001 -12.539531 -6.151387 -0.061319 -0.312892 -0.025716 9.469263 -0.004643 0.045479 -9.675865 11.654748 -8.374971 -0.000929 -0.002842 -40.478867 -3.787721 -1.771291 20.293674 0.000147 -0.049249 -35.223240 17.880933 -2.387466 -3.183489 0.000011 -12.539531 -6.151467 -1.918618 0.079445 -0.271484 
-8.551315 2.750096 81.430489 8.987548 0.533323 -138.730431 0.000000 0.009281 11.569105 5.514801 1.166920 2.446625 0.000001 -0.016864 9.269621 2.466034 0.480873 1.106175 0.000000 -0.000001 8.374496 2.466033 0.480873 1.106173 -0.000000 0.000000 8.374484 1.850392 0.356199 0.831583 -0.000002 -0.000002 12.152547 26.243289 2.327887 3.822284 0.000003 -0.040102 7.802330 12.501971 3.426471 7.521930 -2.894405 0.000001 6.791376 -8.800767 -10.324659 -1.441150 -13.574688 0.000000 0.000011 8.756561 -39.392908 -13.734125 -23.923901 -0.000002 -0.000002 70.393220 17.168876 68.304241 -19.846714 -0.012769 0.000009 -54.411927 37.520838 81.350230 2.894405 -0.000000 6.791372 -7.612432 6.164865 1.251675 13.574682 0.000001 -0.000004 1.981671 37.768190 10.384280 23.923895 -0.000000 0.000000 73.588356 7.574154 -68.775442 19.846714 -0.012773 0.000003 -17.162256 -28.487017 -78.830410 -9.469263 -0.004644 0.045490 9.516070 -14.174960 1.265886 -0.000321 -0.002689 -40.478535 3.187375 -2.701459 6.930406 -0.000544 -0.049168 -35.224083 -1.275807 4.545578 11.733912 0.000000 -12.539535 -6.151376 -0.027858 -0.239575 -0.024705 9.469265 -0.004642 0.045486 -9.588485 11.551557 -8.222575 -0.000936 -0.002844 -40.478870 -3.809719 -1.750933 20.494657 0.000145 -0.049246 -35.223248 17.957302 -2.522148 -3.072384 0.000012 -12.539536 -6.151459 -1.848026 0.103497 -0.260886 
